<svg xmlns="http://www.w3.org/2000/svg" version="1.1" xmlns:xlink="http://www.w3.org/1999/xlink" width="512" height="512" x="0" y="0" viewBox="0 0 512 512" style="enable-background:new 0 0 512 512" xml:space="preserve"><g><path fill-rule="evenodd" d="m92.6 334.31 35.11 131.02c14.79-8.57 30.28-11.45 49.12-7.13l69.15 15.85c15.75 3.61 30.55 2.22 44.54-5.86l172.94-99.84c15.43-8.91 20.76-28.82 11.86-44.26-8.91-15.43-28.79-20.7-44.26-11.86l-105.25 60.19c-.46 28.43-27.86 48.98-55.33 41.51l-64.49-17.55c-4.26-1.16-6.78-5.55-5.62-9.81s5.55-6.78 9.81-5.63l64.49 17.55c14.77 4.02 30.16-4.78 34.18-19.54 5.17-18.99-6.17-38.83-25.17-44l-120.73-32.86c-15.6-4.24-30.57 1.76-43.41 11.59zM293.32 33.74C260.4.82 206.42.7 173.38 33.74c-32.99 32.99-32.99 86.96 0 119.94 45.01 45.01 90.02 90.02 135.03 135.04l135.03-135.03c32.98-32.98 32.98-86.96 0-119.94C410.45.76 356.49.76 323.5 33.75l-15.09 15.09zM75.12 330.89l41.65 155.43c1.02 3.79-1.26 7.72-5.05 8.74L83 502.76c-3.79 1.02-7.72-1.25-8.74-5.05L32.61 342.28c-1.02-3.79 1.25-7.72 5.04-8.74l28.73-7.7c3.79-1.01 7.72 1.26 8.74 5.05z" clip-rule="evenodd" fill="#ffffff" opacity="1" data-original="#000000"></path></g></svg>