<svg xmlns="http://www.w3.org/2000/svg" version="1.1" xmlns:xlink="http://www.w3.org/1999/xlink" width="512" height="512" x="0" y="0" viewBox="0 0 64 64" style="enable-background:new 0 0 512 512" xml:space="preserve"><g><path d="M38.6 28.3c-2.9 0-5.6-1.1-7.6-3.2-2.8-2.8-3.7-6.7-2.8-10.3.3-1 .7-2.1 1.3-3H10.7c-2.1 0-3.8 1.8-3.8 3.9v37.5c0 2.2 1.7 3.9 3.8 3.9h21.2V46.2c0-1.1.9-2 2-2H44.5V26.5c-.9.6-1.9 1.1-3 1.4-.9.3-1.9.4-2.9.4zM26 30.8H14.8c-1.9 0-1.9-3 0-3H26c1.9 0 1.9 3 0 3zm-11.2 7.4h15c1.9 0 1.9 3 0 3h-15c-1.9 0-1.9-3 0-3zM36.7 36H14.9c-1.9 0-1.9-3 0-3h21.8c1.9 0 1.9 3 0 3z" fill="#ffffff" opacity="1" data-original="#000000"></path><path d="M34.9 47.3v7.6l7.2-7.6H39zM44.1 12c-1.5-1.5-3.4-2.3-5.5-2.3s-4 .8-5.5 2.3c-3 3-3 8 0 11 1.5 1.5 3.4 2.3 5.5 2.3s4-.8 5.5-2.3 2.3-3.4 2.3-5.5-.8-4-2.3-5.5zM56.1 30l-.9-.9-3.7-3.7-1-1c-.6-.6-1.5-.6-2.1 0l-.5.5-.7-.9c-.3.4-.6.8-1 1.1-.4.4-.7.7-1.1 1l.8.8-.5.5c-.6.6-.6 1.5 0 2.1 1.8 1.8 3.6 3.7 5.5 5.5 1 1 2.6 1.3 3.9.8 1.5-.5 2.4-2 2.3-3.6-.1-.8-.4-1.6-1-2.2z" fill="#ffffff" opacity="1" data-original="#000000"></path></g></svg>